# xmcd
#
# Track frame offsets:
#	150
#	11963
#	28722
#	45956
#	60778
#	85414
#	97743
#	118572
#	136739
#	162533
#	179714
#	190795
#	223160
#	241065
#	258163
#	288076
#	302759
#	315504
#
# Disc length: 4388 seconds
#
# Revision: 1
# Processed by: cddbd v1.5.2PL0 Copyright (c) Steve Scherf et al.
# Submitted via: audiograbber 1.83.01
#
DISCID=e9112212
DTITLE=Various Artist - Les Legendes du Blues - Women in Blues
DYEAR=2009
DGENRE=Blues
TTITLE0=Pura Fe - Going home
TTITLE1=Demi Evans - Trouble in mind
TTITLE2=Cora Mae Bryant - Ticket agent
TTITLE3=Carolina Chocolate Drops - Black eye blues
TTITLE4=Kate Webster - After u get ride of me
TTITLE5=Marie Knight - You got to move
TTITLE6=Saffire - The Uppity Blues Women - If I should die tonight
TTITLE7=Marcia Ball - I'm coming down with the blues
TTITLE8=Koko Taylor - Fish in dirty water
TTITLE9=Beverly Jo Scott - Tenessessee tears
TTITLE10=Marie Manning - Hard luck and trouble
TTITLE11=Shemekia Copeland - Maried to the blues
TTITLE12=Deborah Coleman - The dream
TTITLE13=Marianne Faithful - It's all over now baby blues
TTITLE14=Etta James - Ball and chain
TTITLE15=Dinah Washington - Long John blues
TTITLE16=Willie Mae "Big Mama" Thomton - Hound dog
TTITLE17=Memphis Minnie - Me and my chauffeur
EXTD=
EXTT0=
EXTT1=
EXTT2=
EXTT3=
EXTT4=
EXTT5=
EXTT6=
EXTT7=
EXTT8=
EXTT9=
EXTT10=
EXTT11=
EXTT12=
EXTT13=
EXTT14=
EXTT15=
EXTT16=
EXTT17=
PLAYORDER=
